<?xml version="1.0" standalone="no"?>
<!DOCTYPE svg PUBLIC "-//W3C//DTD SVG 20010904//EN"
 "http://www.w3.org/TR/2001/REC-SVG-20010904/DTD/svg10.dtd">
<svg version="1.0" xmlns="http://www.w3.org/2000/svg"
 width="1024.000000pt" height="1024.000000pt" viewBox="0 0 1024.000000 1024.000000"
 preserveAspectRatio="xMidYMid meet">
<metadata>
Created by potrace 1.11, written by Peter Selinger 2001-2013
</metadata>
<g transform="translate(0.000000,1024.000000) scale(0.100000,-0.100000)"
fill="#000000" stroke="none">
<path d="M0 5120 l0 -5120 5120 0 5120 0 0 5120 0 5120 -5120 0 -5120 0 0
-5120z m8065 1650 c531 -51 909 -281 1114 -680 120 -234 172 -473 186 -862 l7
-178 -465 0 -464 0 -7 46 c-3 26 -6 80 -6 120 0 242 -78 486 -196 613 -156
169 -458 211 -691 96 -90 -45 -157 -111 -197 -195 -27 -57 -31 -78 -34 -172
-5 -127 15 -230 62 -328 55 -115 140 -188 501 -430 591 -396 876 -590 973
-662 121 -92 306 -270 376 -362 152 -202 236 -431 265 -725 37 -355 -18 -694
-155 -961 -67 -130 -128 -212 -236 -315 -255 -245 -611 -374 -1078 -392 -825
-30 -1390 302 -1620 952 -73 208 -105 408 -116 738 l-7 207 465 0 465 0 7
-193 c10 -294 38 -435 119 -592 57 -109 147 -200 247 -248 100 -49 174 -67
300 -73 290 -16 498 117 587 373 24 69 27 92 27 208 0 93 -5 148 -18 194 -40
148 -139 291 -285 412 -47 40 -333 237 -636 439 -302 202 -584 394 -625 428
-364 293 -559 653 -589 1088 -24 346 46 636 212 884 64 96 211 243 307 307
318 213 745 306 1205 263z m-6035 -2675 l0 -2595 -485 0 -485 0 0 2595 0 2595
485 0 485 0 0 -2595z m2504 2585 c382 -31 659 -152 883 -383 275 -284 440
-713 508 -1317 52 -468 43 -1289 -20 -1760 -123 -917 -474 -1474 -1044 -1654
-193 -61 -166 -60 -1233 -63 l-978 -4 0 2596 0 2595 879 0 c513 0 931 -4 1005
-10z"/>
<path d="M3620 4096 l0 -1826 338 0 c381 0 429 6 542 66 85 44 182 143 236
239 101 181 162 422 200 785 22 211 31 987 15 1268 -46 793 -193 1158 -510
1264 -63 21 -85 22 -443 26 l-378 3 0 -1825z"/>
</g>
</svg>
